{
  "accessors": [
    {
      "bufferView": 0,
      "byteOffset": 0,
      "componentType": 5123,
      "count": 17088,
      "type": "SCALAR",
      "max": [14744],
      "min": [0]
    },
    {
      "bufferView": 1,
      "byteOffset": 0,
      "componentType": 5126,
      "count": 14745,
      "type": "VEC3",
      "max": [12.868297576904297, 5.464059352874756, 8.004698753356934],
      "min": [-12.868298530578613, -2.2960000038146973, -13.39689826965332],
      "name": "POSITION"
    },
    {
      "bufferView": 1,
      "byteOffset": 12,
      "componentType": 5126,
      "count": 14745,
      "type": "VEC3",
      "max": [1.0000044107437134, 1.000003457069397, 0.9999974370002747],
      "min": [-1.0000044107437134, -1.0000014305114746, -0.9966738820075989],
      "name": "NORMAL"
    },
    {
      "bufferView": 1,
      "byteOffset": 24,
      "componentType": 5126,
      "count": 14745,
      "type": "VEC2",
      "max": [0.9526770114898682, 0.9750000238418579],
      "min": [0.02500000037252903, 0.02499997615814209],
      "name": "TEXCOORD_0"
    },
    {
      "bufferView": 0,
      "byteOffset": 34176,
      "componentType": 5123,
      "count": 360,
      "type": "SCALAR",
      "max": [302],
      "min": [0]
    },
    {
      "bufferView": 2,
      "byteOffset": 0,
      "componentType": 5126,
      "count": 303,
      "type": "VEC3",
      "max": [0.5895140171051025, 0.25182101130485535, 0.25182101130485535],
      "min": [
        -2.2888199964654632e-5, -0.25182101130485535, -0.25182101130485535
      ],
      "name": "POSITION"
    },
    {
      "bufferView": 2,
      "byteOffset": 12,
      "componentType": 5126,
      "count": 303,
      "type": "VEC3",
      "max": [0.9999580383300781, 0.9894247055053711, 0.9893759489059448],
      "min": [0.13839049637317657, -0.9893588423728943, -0.9893966317176819],
      "name": "NORMAL"
    },
    {
      "bufferView": 2,
      "byteOffset": 24,
      "componentType": 5126,
      "count": 303,
      "type": "VEC2",
      "max": [0.5661399960517883, 0.585023045539856],
      "min": [0.5124710202217102, 0.5582680106163025],
      "name": "TEXCOORD_0"
    },
    {
      "bufferView": 0,
      "byteOffset": 34896,
      "componentType": 5123,
      "count": 72,
      "type": "SCALAR",
      "max": [71],
      "min": [0]
    },
    {
      "bufferView": 3,
      "byteOffset": 0,
      "componentType": 5126,
      "count": 72,
      "type": "VEC3",
      "max": [0.08199869841337204, 1.596229910850525, 1.5962499380111694],
      "min": [0.08199869841337204, -1.5962599515914917, -1.5962499380111694],
      "name": "POSITION"
    },
    {
      "bufferView": 3,
      "byteOffset": 12,
      "componentType": 5126,
      "count": 72,
      "type": "VEC3",
      "max": [1.0000044107437134, 0, 4.484813942440269e-8],
      "min": [1.0000042915344238, 0, -2.2424242018814766e-8],
      "name": "NORMAL"
    },
    {
      "bufferView": 3,
      "byteOffset": 24,
      "componentType": 5126,
      "count": 72,
      "type": "VEC2",
      "max": [0.8944259881973267, 0.8944259881973267],
      "min": [0.10557399690151215, 0.10557401180267334],
      "name": "TEXCOORD_0"
    }
  ],
  "asset": { "generator": "Aspose.3D 23.9.0", "version": "2.0" },
  "buffers": [
    {
      "uri": "data:application/octet-stream;base64,",
      "byteLength": 595696
    }
  ],
  "bufferViews": [
    { "buffer": 0, "byteOffset": 0, "byteLength": 35040, "target": 34963 },
    {
      "buffer": 0,
      "byteOffset": 35044,
      "byteLength": 546816,
      "byteStride": 32,
      "target": 34962
    },
    {
      "buffer": 0,
      "byteOffset": 581864,
      "byteLength": 11520,
      "byteStride": 32,
      "target": 34962
    },
    {
      "buffer": 0,
      "byteOffset": 593388,
      "byteLength": 2304,
      "byteStride": 32,
      "target": 34962
    }
  ],
  "images": [
    {
      "uri": "data:image/jpeg;base64,"
    },
    {
      "uri": "data:image/png;base64,"
    }
  ],
  "materials": [
    {
      "pbrMetallicRoughness": {
        "baseColorFactor": [1, 1, 1, 1],
        "baseColorTexture": { "index": 0, "texCoord": 0 },
        "metallicFactor": 0,
        "roughnessFactor": 0.5
      },
      "emissiveFactor": [0, 0, 0],
      "alphaMode": "OPAQUE",
      "doubleSided": true
    },
    {
      "pbrMetallicRoughness": {
        "baseColorFactor": [1, 1, 1, 1],
        "baseColorTexture": { "index": 0, "texCoord": 0 },
        "metallicFactor": 0,
        "roughnessFactor": 0.5
      },
      "emissiveFactor": [0, 0, 0],
      "alphaMode": "OPAQUE",
      "doubleSided": true
    },
    {
      "name": "prop",
      "pbrMetallicRoughness": {
        "baseColorFactor": [1, 1, 1, 1],
        "baseColorTexture": { "index": 1, "texCoord": 0 },
        "metallicFactor": 0,
        "roughnessFactor": 0.5
      },
      "emissiveFactor": [0, 0, 0],
      "alphaMode": "OPAQUE",
      "doubleSided": true
    }
  ],
  "meshes": [
    {
      "primitives": [
        {
          "attributes": { "POSITION": 1, "NORMAL": 2, "TEXCOORD_0": 3 },
          "indices": 0,
          "material": 0,
          "mode": 4
        }
      ]
    },
    {
      "primitives": [
        {
          "attributes": { "POSITION": 5, "NORMAL": 6, "TEXCOORD_0": 7 },
          "indices": 4,
          "material": 1,
          "mode": 4
        },
        {
          "attributes": { "POSITION": 9, "NORMAL": 10, "TEXCOORD_0": 11 },
          "indices": 8,
          "material": 2,
          "mode": 4
        }
      ]
    },
    {
      "primitives": [
        {
          "attributes": { "POSITION": 5, "NORMAL": 6, "TEXCOORD_0": 7 },
          "indices": 4,
          "material": 1,
          "mode": 4
        },
        {
          "attributes": { "POSITION": 9, "NORMAL": 10, "TEXCOORD_0": 11 },
          "indices": 8,
          "material": 2,
          "mode": 4
        }
      ]
    }
  ],
  "nodes": [
    {
      "matrix": [
        1, 0, 0, 0, 0, 1, 0, 0, 0, 0, 1, 0, 1.9191499948501587,
        -0.6840609908103943, 3.4093198776245117, 1
      ],
      "mesh": 1,
      "name": "Prop__2_"
    },
    {
      "matrix": [
        1, 0, 0, 0, 0, 1, 0, 0, 0, 0, 1, 0, 1.9191499948501587,
        -0.6840609908103943, -3.4093198776245117, 1
      ],
      "mesh": 2,
      "name": "Prop"
    },
    {
      "children": [0, 1],
      "matrix": [
        -5.9604640958854195e-8, 0, 0.9999999061668225, 0, 1.685873811097342e-7,
        -0.9999999061668101, 1.0048591264130473e-14, 0, 0.9999999061668083,
        1.685873811097345e-7, 5.960464095885335e-8, 0, 0, 0, 0, 1
      ],
      "name": "Cesium_Air"
    },
    { "children": [2], "mesh": 0, "name": "Node #3" }
  ],
  "samplers": [
    { "magFilter": 9729, "minFilter": 9729, "wrapS": 10497, "wrapT": 10497 },
    { "magFilter": 9729, "minFilter": 9729, "wrapS": 10497, "wrapT": 10497 }
  ],
  "scene": 0,
  "scenes": [{ "nodes": [3] }],
  "textures": [
    { "sampler": 0, "source": 0, "name": "" },
    { "sampler": 1, "source": 1, "name": "" }
  ]
}
